<svg xmlns="http://www.w3.org/2000/svg" width="640" height="360" viewBox="0 0 640 360" fill="none">
  <rect width="640" height="360" rx="18" fill="#F4F7FC"/>
  <rect x="24" y="34" width="592" height="292" rx="14" fill="#EEF3FB" stroke="#D2DCEE"/>
  <rect x="40" y="72" width="560" height="62" rx="12" fill="#FFFFFF" stroke="#D4DEEE"/>
  <rect x="58" y="89" width="64" height="26" rx="6" fill="#E8EEF8" stroke="#C8D4E8"/>
  <text x="90" y="106" text-anchor="middle" fill="#5A6D8C" font-family="Arial, sans-serif" font-size="10" font-weight="700">LOGO</text>
  <rect x="130" y="93" width="48" height="18" rx="9" fill="#F5F8FE" stroke="#D7E2F2"/>
  <text x="154" y="105" text-anchor="middle" fill="#5B6E8E" font-family="Arial, sans-serif" font-size="9">Home</text>
  <rect x="182" y="93" width="58" height="18" rx="9" fill="#F5F8FE" stroke="#D7E2F2"/>
  <text x="211" y="105" text-anchor="middle" fill="#5B6E8E" font-family="Arial, sans-serif" font-size="9">Features</text>
  <rect x="244" y="93" width="52" height="18" rx="9" fill="#F5F8FE" stroke="#D7E2F2"/>
  <text x="270" y="105" text-anchor="middle" fill="#5B6E8E" font-family="Arial, sans-serif" font-size="9">Pricing</text>
  <rect x="300" y="93" width="56" height="18" rx="9" fill="#F5F8FE" stroke="#D7E2F2"/>
  <text x="328" y="105" text-anchor="middle" fill="#5B6E8E" font-family="Arial, sans-serif" font-size="9">Contact</text>
  <rect x="526" y="86" width="66" height="32" rx="8" fill="#356EE8"/>
  <text x="559" y="106" text-anchor="middle" fill="#FFFFFF" font-family="Arial, sans-serif" font-size="11" font-weight="700">Book</text>
  <text x="320" y="196" text-anchor="middle" fill="#4B5E7D" font-family="Arial, sans-serif" font-size="24" font-weight="700">Left aligned navigation</text>
  <text x="320" y="224" text-anchor="middle" fill="#6C7F9D" font-family="Arial, sans-serif" font-size="13">Logo and links grouped together on the left</text>
</svg>
