<svg xmlns="http://www.w3.org/2000/svg" xmlns:xlink="http://www.w3.org/1999/xlink" xmlns:xodm="http://www.corel.com/coreldraw/odm/2003" xml:space="preserve" version="1.1" style="shape-rendering:geometricPrecision; text-rendering:geometricPrecision; image-rendering:optimizeQuality; fill-rule:evenodd; clip-rule:evenodd" viewBox="3748.49 8890.79 21517.9 3651.23">
 <defs>
  <style type="text/css">
   <![CDATA[
    .str1 {stroke:black;stroke-width:476.25;stroke-linecap:round;stroke-miterlimit:22.9256;stroke-opacity:0.901961}
    .str0 {stroke:#1E5ED8;stroke-width:476.25;stroke-linecap:round;stroke-miterlimit:22.9256}
    .fil0 {fill:none;fill-rule:nonzero}
    .fil1 {fill:none;fill-rule:nonzero}
    .fil2 {fill:black;fill-rule:nonzero}
    .fil3 {fill:#1E5ED8;fill-rule:nonzero}
   ]]>
  </style>
 </defs>
 <g id="Layer_x0020_1">
  <metadata id="CorelCorpID_0Corel-Layer"/>
  <path class="fil0 str0" d="M5575.41 9128.92c876.26,0.59 1586.19,711.29 1586.19,1587.49 0,876.59 -710.9,1587.49 -1587.5,1587.49 -876.59,0 -1587.49,-710.9 -1587.49,-1587.49 0,-876.2 709.93,-1586.9 1586.13,-1587.48"/>
  <path class="fil1 str1" d="M6369.16 9128.92c876.26,0.59 1586.19,711.29 1586.19,1587.49 0,876.59 -710.9,1587.49 -1587.5,1587.49 -876.6,0 -1587.49,-710.9 -1587.49,-1587.49 0,-876.2 709.92,-1586.9 1586.13,-1587.48"/>
  <polygon class="fil2" points="10496.09,10019.19 10496.09,11440.04 10309.51,11440.04 10309.51,10306.23 9856.4,11440.04 9690.32,11440.04 9235.16,10310.33 9235.16,11440.04 9048.58,11440.04 9048.58,10019.19 9272.06,10019.19 9776.43,11212.46 10272.6,10019.19 "/>
  <path id="_1" class="fil2" d="M11830.83 10814.7c0,38.96 -2.05,73.81 -8.2,102.52l-900.08 0c4.1,129.16 41,225.53 110.71,289.09 67.66,63.56 151.73,96.36 252.19,96.36 90.21,0 166.07,-22.55 227.58,-69.71 59.46,-45.11 96.37,-106.61 110.72,-182.48l198.88 0c-14.36,77.92 -43.06,147.63 -90.22,209.13 -47.15,61.51 -108.66,108.67 -184.52,143.52 -75.86,34.86 -159.92,51.26 -254.24,51.26 -108.66,0 -202.98,-22.55 -287.04,-69.71 -84.06,-47.15 -147.62,-112.76 -194.78,-200.93 -47.15,-86.11 -71.76,-188.62 -71.76,-305.49 0,-116.87 24.61,-219.38 71.76,-307.54 47.16,-88.17 110.72,-153.77 194.78,-200.93 84.06,-47.16 178.38,-69.71 287.04,-69.71 108.67,0 205.03,22.55 287.04,69.71 79.96,47.16 143.52,108.66 186.58,186.57 43.05,77.92 63.56,164.03 63.56,258.34zm-188.63 12.3c4.1,-84.06 -10.25,-153.77 -41,-209.13 -30.76,-55.35 -73.82,-98.41 -129.17,-125.06 -55.36,-26.66 -114.82,-41.01 -178.38,-41.01 -102.51,0 -188.63,30.75 -258.33,94.31 -69.71,63.56 -106.62,157.88 -112.77,280.89l719.65 0z"/>
  <path id="_2" class="fil2" d="M13110.2 10814.7c0,38.96 -2.05,73.81 -8.2,102.52l-900.07 0c4.1,129.16 41,225.53 110.71,289.09 67.66,63.56 151.73,96.36 252.19,96.36 90.21,0 166.07,-22.55 227.58,-69.71 59.46,-45.11 96.37,-106.61 110.72,-182.48l198.87 0c-14.36,77.92 -43.06,147.63 -90.22,209.13 -47.15,61.51 -108.65,108.67 -184.51,143.52 -75.86,34.86 -159.92,51.26 -254.24,51.26 -108.66,0 -202.98,-22.55 -287.04,-69.71 -84.06,-47.15 -147.62,-112.76 -194.78,-200.93 -47.15,-86.11 -71.76,-188.62 -71.76,-305.49 0,-116.87 24.61,-219.38 71.76,-307.54 47.16,-88.17 110.72,-153.77 194.78,-200.93 84.06,-47.16 178.38,-69.71 287.04,-69.71 108.67,0 205.03,22.55 287.04,69.71 79.95,47.16 143.51,108.66 186.57,186.57 43.05,77.92 63.56,164.03 63.56,258.34zm-188.63 12.3c4.1,-84.06 -10.24,-153.77 -40.99,-209.13 -30.76,-55.35 -73.82,-98.41 -129.17,-125.06 -55.36,-26.66 -114.82,-41.01 -178.38,-41.01 -102.51,0 -188.63,30.75 -258.33,94.31 -69.71,63.56 -106.62,157.88 -112.77,280.89l719.64 0z"/>
  <path id="_3" class="fil2" d="M13891.36 11276.02l0 164.02 -139.42 0c-114.82,0 -200.93,-26.65 -256.29,-82.01 -57.41,-55.36 -86.11,-145.57 -86.11,-274.74l0 -606.89 -168.12 0 0 -161.97 168.12 0 0 -280.89 188.63 0 0 280.89 291.14 0 0 161.97 -291.14 0 0 610.99c0,71.76 14.35,120.97 41,147.62 26.66,26.65 71.76,41.01 137.37,41.01l114.82 0z"/>
  <path class="fil3" d="M15088.77 11064.84c0,67.66 -16.4,131.22 -49.21,190.67 -32.8,59.46 -82.01,106.62 -149.67,143.52 -67.66,36.91 -149.67,55.36 -248.08,55.36 -96.37,0 -180.43,-18.45 -254.24,-53.31 -75.86,-34.85 -135.32,-82.01 -178.37,-143.52 -45.11,-59.45 -71.76,-129.16 -77.91,-207.08l198.87 0c4.1,41.01 18.46,79.97 43.06,118.92 22.55,38.96 57.41,71.76 102.51,96.37 43.06,26.65 96.37,38.95 159.93,38.95 82.01,0 145.57,-22.55 188.62,-65.61 43.06,-43.05 65.61,-100.46 65.61,-168.12 0,-59.46 -14.35,-106.62 -45.1,-143.52 -30.76,-36.91 -69.71,-65.61 -114.82,-88.16 -45.11,-20.51 -106.62,-43.06 -184.53,-67.66 -92.26,-30.76 -164.02,-59.46 -219.38,-86.12 -55.36,-26.65 -102.51,-65.61 -141.47,-118.91 -38.95,-53.31 -59.46,-123.02 -59.46,-211.18 0,-75.86 18.46,-141.47 55.36,-198.88 34.86,-57.41 88.16,-102.52 155.82,-133.27 67.66,-30.75 145.57,-47.16 237.84,-47.16 141.47,0 254.23,34.86 338.3,102.52 84.06,69.71 131.21,157.87 145.57,264.48l-200.93 0c-10.25,-57.4 -41.01,-108.66 -88.16,-151.72 -47.16,-43.05 -112.77,-65.61 -194.78,-65.61 -75.86,0 -135.32,18.46 -180.43,57.41 -45.1,38.96 -67.66,94.32 -67.66,166.08 0,55.35 14.35,100.46 45.11,135.31 28.7,34.86 65.61,63.56 108.66,82.02 43.06,20.5 104.57,43.05 180.43,67.66 92.26,30.75 168.12,59.45 225.53,86.11 55.36,26.65 104.57,67.66 143.52,123.02 38.96,55.35 59.46,129.16 59.46,221.43z"/>
  <path id="_1_0" class="fil3" d="M15837.11 10300.08c143.52,0 262.44,38.95 356.75,114.81 94.32,75.87 151.72,178.38 174.28,307.55l-196.83 0c-14.35,-79.96 -51.26,-143.52 -110.72,-190.68 -61.51,-45.1 -137.37,-67.66 -227.58,-67.66 -65.61,0 -125.07,14.35 -178.37,45.11 -55.36,30.75 -98.42,75.86 -131.22,137.37 -32.81,63.56 -49.21,139.42 -49.21,231.68 0,92.26 16.4,168.12 49.21,229.63 32.8,63.56 75.86,108.67 131.22,139.42 53.3,30.76 112.76,45.11 178.37,45.11 90.21,0 166.07,-22.55 227.58,-69.71 59.46,-47.16 96.37,-110.72 110.72,-190.68l196.83 0c-22.56,129.17 -79.96,231.69 -174.28,307.55 -94.31,75.86 -213.23,114.81 -356.75,114.81 -108.66,0 -202.98,-22.55 -287.04,-69.71 -84.06,-47.15 -147.62,-112.76 -194.78,-200.93 -47.15,-86.11 -71.76,-188.62 -71.76,-305.49 0,-116.87 24.61,-219.38 71.76,-307.54 47.16,-88.17 110.72,-153.77 194.78,-200.93 84.06,-47.16 178.38,-69.71 287.04,-69.71z"/>
  <path id="_2_1" class="fil3" d="M17204.66 10295.98c131.21,0 237.83,41 317.79,125.07 79.96,84.06 120.97,207.08 120.97,364.95l0 654.04 -186.58 0 0 -637.64c0,-112.77 -28.7,-198.88 -86.11,-258.34 -57.41,-59.46 -135.32,-90.21 -233.73,-90.21 -102.52,0 -184.53,32.81 -246.04,98.41 -61.51,67.66 -92.26,164.03 -92.26,291.15l0 596.63 -186.58 0 0 -1517.21 186.58 0 0 658.14c28.7,-92.26 79.96,-161.97 153.77,-211.18 71.76,-49.21 155.82,-73.81 252.19,-73.81z"/>
  <path id="_3_2" class="fil3" d="M18965.86 10814.7c0,38.96 -2.05,73.81 -8.2,102.52l-900.08 0c4.1,129.16 41,225.53 110.71,289.09 67.66,63.56 151.73,96.36 252.19,96.36 90.21,0 166.07,-22.55 227.58,-69.71 59.46,-45.11 96.37,-106.61 110.72,-182.48l198.88 0c-14.36,77.92 -43.06,147.63 -90.22,209.13 -47.15,61.51 -108.66,108.67 -184.52,143.52 -75.86,34.86 -159.92,51.26 -254.24,51.26 -108.66,0 -202.98,-22.55 -287.04,-69.71 -84.06,-47.15 -147.62,-112.76 -194.78,-200.93 -47.15,-86.11 -71.76,-188.62 -71.76,-305.49 0,-116.87 24.61,-219.38 71.76,-307.54 47.16,-88.17 110.72,-153.77 194.78,-200.93 84.06,-47.16 178.38,-69.71 287.04,-69.71 108.67,0 205.03,22.55 287.04,69.71 79.96,47.16 143.52,108.66 186.58,186.57 43.05,77.92 63.56,164.03 63.56,258.34zm-188.63 12.3c4.1,-84.06 -10.25,-153.77 -41,-209.13 -30.76,-55.35 -73.82,-98.41 -129.17,-125.06 -55.36,-26.66 -114.82,-41.01 -178.38,-41.01 -102.51,0 -188.63,30.75 -258.33,94.31 -69.71,63.56 -106.62,157.88 -112.77,280.89l719.65 0z"/>
  <path id="_4" class="fil3" d="M19671.16 10300.08c108.66,0 202.98,26.65 278.84,82.01 75.86,55.36 127.11,127.12 157.87,219.38l0 -678.64 186.57 0 0 1517.21 -186.57 0 0 -287.04c-30.76,92.26 -82.01,164.02 -157.87,219.38 -75.86,55.36 -170.18,82.01 -278.84,82.01 -100.47,0 -188.63,-22.55 -266.54,-69.71 -77.91,-47.15 -139.42,-112.76 -182.48,-200.93 -45.1,-86.11 -67.66,-188.62 -67.66,-305.49 0,-116.87 22.56,-219.38 67.66,-307.54 43.06,-88.17 104.57,-153.77 182.48,-200.93 77.91,-47.16 166.07,-69.71 266.54,-69.71zm53.3 166.07c-114.81,0 -207.08,36.91 -274.73,108.67 -69.71,73.81 -104.57,174.27 -104.57,303.44 0,129.17 34.86,229.63 104.57,301.39 67.65,73.81 159.92,110.72 274.73,110.72 73.81,0 139.42,-16.4 198.88,-51.26 57.41,-34.85 102.52,-82.01 135.32,-145.57 32.81,-61.51 49.21,-133.27 49.21,-215.28 0,-82.01 -16.4,-153.77 -49.21,-217.33 -32.8,-63.56 -77.91,-110.72 -135.32,-145.57 -59.46,-32.81 -125.07,-49.21 -198.88,-49.21z"/>
  <path id="_5" class="fil3" d="M21592.27 10314.43l0 1125.61 -186.57 0 0 -264.49c-28.71,92.27 -79.96,161.98 -151.73,209.13 -73.81,49.21 -159.92,73.81 -256.28,73.81 -129.16,0 -235.77,-43.05 -315.74,-127.12 -79.96,-84.06 -120.96,-202.97 -120.96,-360.85l0 -656.09 186.57 0 0 637.64c0,112.77 28.71,198.88 86.12,258.34 57.4,61.51 135.3,92.26 233.72,92.26 102.51,0 184.52,-32.8 246.03,-100.46 61.51,-65.61 92.27,-161.98 92.27,-289.09l0 -598.69 186.57 0z"/>
  <polygon id="_6" class="fil3" points="22078.19,9922.83 22078.19,11440.04 21891.61,11440.04 21891.61,9922.83 "/>
  <path id="_7" class="fil3" d="M22344.73 9984.33c0,-34.85 12.3,-61.5 34.85,-84.06 22.55,-20.5 53.31,-30.75 92.26,-30.75 38.96,0 69.71,10.25 92.27,30.75 22.55,22.56 34.85,49.21 34.85,84.06 0,34.86 -12.3,61.51 -34.85,82.02 -22.56,22.55 -53.31,32.8 -92.27,32.8 -38.95,0 -69.71,-10.25 -92.26,-32.8 -22.55,-20.51 -34.85,-47.16 -34.85,-82.02zm219.38 330.1l0 1125.61 -186.58 0 0 -1125.61 186.58 0z"/>
  <path id="_8" class="fil3" d="M23455.99 10295.98c131.21,0 237.83,41 317.79,125.07 79.96,84.06 120.97,207.08 120.97,364.95l0 654.04 -186.58 0 0 -637.64c0,-112.77 -28.7,-198.88 -86.11,-258.34 -57.41,-59.46 -135.32,-90.21 -233.73,-90.21 -102.52,0 -184.53,32.81 -246.04,98.41 -61.51,67.66 -92.26,164.03 -92.26,291.15l0 596.63 -186.58 0 0 -1125.61 186.58 0 0 266.54c28.7,-92.26 79.96,-161.97 153.77,-211.18 71.76,-49.21 155.82,-73.81 252.19,-73.81z"/>
  <path id="_9" class="fil3" d="M24643.11 10300.08c108.66,0 202.98,26.65 278.84,82.01 75.86,55.36 127.11,127.12 157.87,219.38l0 -287.04 186.57 0 0 1144.06c0,104.57 -22.55,196.83 -65.6,276.79 -43.06,79.96 -104.57,143.52 -184.53,188.63 -79.96,45.1 -172.23,67.66 -276.79,67.66 -151.72,0 -274.74,-36.91 -371.1,-108.67 -96.37,-73.81 -155.82,-172.22 -182.48,-297.29l184.53 0c22.55,75.86 63.56,135.32 125.07,178.38 59.45,43.05 137.36,63.55 233.73,63.55 100.46,0 184.52,-32.8 252.18,-96.36 65.61,-65.61 98.42,-155.82 98.42,-272.69l0 -305.49c-30.76,92.26 -82.01,164.02 -157.87,219.38 -75.86,55.36 -170.18,82.01 -278.84,82.01 -100.47,0 -188.63,-22.55 -266.54,-69.71 -77.91,-47.15 -139.42,-112.76 -182.48,-200.93 -45.1,-86.11 -67.66,-188.62 -67.66,-305.49 0,-116.87 22.56,-219.38 67.66,-307.54 43.06,-88.17 104.57,-153.77 182.48,-200.93 77.91,-47.16 166.07,-69.71 266.54,-69.71zm53.3 166.07c-114.81,0 -207.08,36.91 -274.73,108.67 -69.71,73.81 -104.57,174.27 -104.57,303.44 0,129.17 34.86,229.63 104.57,301.39 67.65,73.81 159.92,110.72 274.73,110.72 73.81,0 139.42,-16.4 198.88,-51.26 57.41,-34.85 102.52,-82.01 135.32,-145.57 32.81,-61.51 49.21,-133.27 49.21,-215.28 0,-82.01 -16.4,-153.77 -49.21,-217.33 -32.8,-63.56 -77.91,-110.72 -135.32,-145.57 -59.46,-32.81 -125.07,-49.21 -198.88,-49.21z"/>
 </g>
</svg>